<svg width="305" height="176" viewBox="0 0 305 176" fill="none" xmlns="http://www.w3.org/2000/svg">
    <g filter="url(#filter0_d_462_19)">
        <rect x="35" y="25" width="305" height="176" fill="url(#paint0_linear_462_19)" />
    </g>
    <mask id="mask0_462_19" style="mask-type:alpha" maskUnits="userSpaceOnUse" x="35" y="25" width="305" height="176">
        <rect x="35" y="25" width="305" height="176" fill="url(#paint1_linear_462_19)" />
    </mask>
    <g mask="url(#mask0_462_19)">
        <path opacity="0.15"
            d="M65.092 115.029C38.5 94 18 98 6.09205 103.029C3.75872 128.696 0.492049 182.829 6.09205 194.029C13.092 208.029 76.092 214.029 119.092 221.029C153.492 226.629 303.425 232.363 369.092 221.029C376.092 178.029 385.892 43.8294 369.092 43.0294C348.092 42.0294 299.047 66.508 265 123.508C220.5 198.008 203 97 153.5 85.5C125.185 78.9218 91.7309 136.096 65.092 115.029Z"
            fill="white" />
        <path opacity="0.15"
            d="M65 127.029C43.3824 117.781 24.4254 126.363 10.092 127.029C7.75872 152.696 4.49205 206.829 10.092 218.029C17.092 232.029 80.092 238.029 123.092 245.029C157.492 250.629 307.425 229.363 373.092 218.029C380.092 175.029 389.892 67.8294 373.092 67.0294C352.092 66.0294 303.047 90.508 269 147.508C224.5 222.008 154 204.008 129 178.008C108.852 157.054 93 139.008 65 127.029Z"
            fill="white" />
    </g>
    <defs>
        <filter id="filter0_d_462_19" x="0" y="0" width="375" height="246" filterUnits="userSpaceOnUse"
            color-interpolation-filters="sRGB">
            <feFlood flood-opacity="0" result="BackgroundImageFix" />
            <feColorMatrix in="SourceAlpha" type="matrix" values="0 0 0 0 0 0 0 0 0 0 0 0 0 0 0 0 0 0 127 0"
                result="hardAlpha" />
            <feOffset dy="10" />
            <feGaussianBlur stdDeviation="17.5" />
            <feColorMatrix type="matrix" values="0 0 0 0 0.290196 0 0 0 0 0.501961 0 0 0 0 0.941176 0 0 0 0.2 0" />
            <feBlend mode="normal" in2="BackgroundImageFix" result="effect1_dropShadow_462_19" />
            <feBlend mode="normal" in="SourceGraphic" in2="effect1_dropShadow_462_19" result="shape" />
        </filter>
        <linearGradient id="paint0_linear_462_19" x1="35" y1="201" x2="303.811" y2="-19.1813"
            gradientUnits="userSpaceOnUse">
            <stop stop-color="#441DFC" />
            <stop offset="1" stop-color="#4E81EB" />
        </linearGradient>
        <linearGradient id="paint1_linear_462_19" x1="35" y1="201" x2="303.811" y2="-19.1813"
            gradientUnits="userSpaceOnUse">
            <stop stop-color="#441DFC" />
            <stop offset="1" stop-color="#4E81EB" />
        </linearGradient>
    </defs>
</svg>